<svg height="512pt" viewBox="-72 0 512 512" width="512pt" xmlns="http://www.w3.org/2000/svg"><path d="m352.398438 0h-128.53125c-13.335938 0-20.035157 16.175781-10.605469 25.605469l30.9375 30.9375-38.121094 38.121093c-19.414063-9.402343-40.808594-14.332031-62.546875-14.332031-79.144531 0-143.53125 64.390625-143.53125 143.53125 0 61.554688 39.089844 115.738281 96.398438 135.609375v18.09375h-33.199219c-8.285157 0-15 6.714844-15 15v64.265625c0 8.285157 6.714843 15 15 15h33.199219v25.167969c0 8.285156 6.71875 15 15 15h64.269531c8.28125 0 15-6.714844 15-15v-25.167969h33.199219c8.285156 0 15-6.714843 15-15v-64.265625c0-8.285156-6.714844-15-15-15h-33.199219v-18.09375c57.308593-19.867187 96.398437-74.054687 96.398437-135.605468 0-21.734376-4.929687-43.136719-14.332031-62.546876l38.121094-38.121093 30.9375 30.941406c9.429687 9.433594 25.605469 2.722656 25.605469-10.609375v-128.53125c0-8.285156-6.714844-15-15-15zm-208.867188 273.132812c-27.164062 0-49.265625-22.101562-49.265625-49.265624 0-27.167969 22.101563-49.269532 49.265625-49.269532 27.167969 0 49.269531 22.101563 49.269531 49.269532 0 27.164062-22.101562 49.265624-49.269531 49.265624zm0 0" fill="#ff5c79"/><path d="m352.398438 0h-128.527344c-13.339844 0-20.042969 16.179688-10.609375 25.609375l30.9375 30.929687-38.121094 38.132813c-19.40625-9.410156-40.808594-14.34375-62.546875-14.34375v94.273437c27.167969 0 49.269531 22.097657 49.269531 49.269532 0 27.160156-22.101562 49.257812-49.269531 49.257812v238.871094h32.140625c8.277344 0 15-6.71875 15-15v-25.171875h33.199219c8.277344 0 15-6.707031 15-15v-64.257813c0-8.289062-6.722656-15-15-15h-33.199219v-18.101562c57.308594-19.867188 96.398437-74.046875 96.398437-135.597656 0-21.742188-4.929687-43.140625-14.339843-62.550782l38.128906-38.121093 30.929687 30.941406c9.429688 9.429687 25.609376 2.730469 25.609376-10.609375v-128.53125c0-8.28125-6.71875-15-15-15zm0 0" fill="#ff1f3e"/><path d="m310.855469 123.199219 30.9375 30.941406c9.429687 9.433594 25.605469 2.722656 25.605469-10.609375v-128.53125c0-8.285156-6.714844-15-15-15h-128.53125c-13.335938 0-20.035157 16.175781-10.605469 25.605469l30.9375 30.9375-38.121094 38.121093c-19.414063-9.402343-40.808594-14.332031-62.546875-14.332031-79.144531 0-143.53125 64.390625-143.53125 143.53125h94.265625c0-27.164062 22.101563-49.265625 49.269531-49.265625 27.164063 0 49.265625 22.101563 49.265625 49.269532h94.265625c0-21.734376-4.929687-43.136719-14.332031-62.546876zm0 0" fill="#40bfff"/><path d="m367.398438 15v128.53125c0 13.339844-16.179688 20.039062-25.609376 10.609375l-30.929687-30.941406-38.128906 38.121093c9.410156 19.410157 14.339843 40.808594 14.339843 62.550782h-94.269531c0-27.171875-22.101562-49.269532-49.269531-49.269532v-94.273437c21.738281 0 43.140625 4.933594 62.546875 14.34375l38.121094-38.132813-30.9375-30.929687c-9.433594-9.429687-2.730469-25.609375 10.609375-25.609375h128.527344c8.28125 0 15 6.71875 15 15zm0 0" fill="#0090e8"/></svg>